# xmcd
#
# Track frame offsets:
#	182
#	12955
#	26952
#	40865
#	56057
#	68620
#	79835
#	95022
#	124125
#	139477
#	152645
#	165807
#	181450
#	196512
#	210510
#	224910
#	239732
#	253972
#	268420
#	281665
#	297280
#	312420
#
# Disc length: 4363 seconds
#
# Revision: 0
# Processed by: cddbd v1.5.2PL0 Copyright (c) Steve Scherf et al.
# Submitted via: EasyCDDAExtractor 10.0.5.1
#
DISCID=59110916
DTITLE=Reda Caire - Etoiles De La Chanson
DYEAR=1992
DGENRE=Rétro
TTITLE0=Les Beaux Dimanches De Printemps
TTITLE1=Je N'ai Pas De Guitare
TTITLE2=Un Soir À La Havane
TTITLE3=Je Voudrais Un Joli Bateau
TTITLE4=Si Tu Reviens
TTITLE5=Le Plus Beau Refrain
TTITLE6=Dis Moi Que Tu M'aimes
TTITLE7=Medley Sur Les Airs Du Casino De Paris
TTITLE8=Bateau D'amour
TTITLE9=Je Rêve Au Fil De L'eau
TTITLE10=Ma Banlieue
TTITLE11=Balalaïka
TTITLE12=Ces Mots, Je T'aime
TTITLE13=Sur La Route Blanche
TTITLE14=Bercé Par La Houle
TTITLE15=J'ai Retrouvé L'amour
TTITLE16=Vous Seule Que J'aime
TTITLE17=Pourquoi Dire Non
TTITLE18=Bonjour Tommy
TTITLE19=Voyage Dans La Lune
TTITLE20=Ses Yeux Perdus
TTITLE21=Jeunesse
EXTD=
EXTT0=
EXTT1=
EXTT2=
EXTT3=
EXTT4=
EXTT5=
EXTT6=
EXTT7=
EXTT8=
EXTT9=
EXTT10=
EXTT11=
EXTT12=
EXTT13=
EXTT14=
EXTT15=
EXTT16=
EXTT17=
EXTT18=
EXTT19=
EXTT20=
EXTT21=
PLAYORDER=
